{
	"asset":{
		"generator":"Khronos glTF Blender I/O v5.1.18",
		"version":"2.0"
	},
	"extensionsUsed":[
		"KHR_materials_specular",
		"KHR_materials_ior"
	],
	"scene":0,
	"scenes":[
		{
			"name":"Scene",
			"nodes":[
				0
			]
		}
	],
	"nodes":[
		{
			"mesh":0,
			"name":"Mantissa_Japanese_Maple_001.003",
			"rotation":[
				0,
				0.9058568477630615,
				0,
				0.4235839545726776
			],
			"scale":[
				0.5617116093635559,
				0.5617116689682007,
				0.5617116093635559
			],
			"translation":[
				-3.524007797241211,
				0.21702627837657928,
				-1.6235767602920532
			]
		}
	],
	"materials":[
		{
			"doubleSided":true,
			"extensions":{
				"KHR_materials_specular":{
					"specularFactor":0.6000000238418579
				},
				"KHR_materials_ior":{
					"ior":1.4500000476837158
				}
			},
			"name":"Roots",
			"normalTexture":{
				"index":0
			},
			"pbrMetallicRoughness":{
				"baseColorTexture":{
					"index":1
				},
				"metallicFactor":0,
				"roughnessFactor":0.800000011920929
			}
		},
		{
			"doubleSided":true,
			"extensions":{
				"KHR_materials_specular":{
					"specularFactor":0.6000000238418579
				},
				"KHR_materials_ior":{
					"ior":1.4500000476837158
				}
			},
			"name":"Trunk",
			"normalTexture":{
				"index":2
			},
			"pbrMetallicRoughness":{
				"baseColorTexture":{
					"index":3
				},
				"metallicFactor":0,
				"roughnessFactor":0.800000011920929
			}
		},
		{
			"doubleSided":true,
			"extensions":{
				"KHR_materials_specular":{
					"specularFactor":0.6000000238418579
				},
				"KHR_materials_ior":{
					"ior":1.4500000476837158
				}
			},
			"name":"Branches_Big",
			"normalTexture":{
				"index":4
			},
			"pbrMetallicRoughness":{
				"baseColorTexture":{
					"index":5
				},
				"metallicFactor":0,
				"roughnessFactor":0.800000011920929
			}
		},
		{
			"doubleSided":true,
			"extensions":{
				"KHR_materials_specular":{
					"specularFactor":0.6000000238418579
				},
				"KHR_materials_ior":{
					"ior":1.4500000476837158
				}
			},
			"name":"Branches_Small",
			"normalTexture":{
				"index":6
			},
			"pbrMetallicRoughness":{
				"baseColorTexture":{
					"index":7
				},
				"metallicFactor":0,
				"roughnessFactor":0.800000011920929
			}
		},
		{
			"doubleSided":true,
			"extensions":{
				"KHR_materials_specular":{
					"specularFactor":0.6000000238418579
				},
				"KHR_materials_ior":{
					"ior":1.4500000476837158
				}
			},
			"name":"Twigs",
			"normalTexture":{
				"index":8
			},
			"pbrMetallicRoughness":{
				"baseColorTexture":{
					"index":9
				},
				"metallicFactor":0,
				"roughnessFactor":0.800000011920929
			}
		},
		{
			"doubleSided":true,
			"name":"Leaf_01",
			"normalTexture":{
				"index":10
			},
			"pbrMetallicRoughness":{
				"baseColorTexture":{
					"index":11
				},
				"metallicFactor":0,
				"metallicRoughnessTexture":{
					"index":12
				}
			}
		},
		{
			"doubleSided":true,
			"name":"Leaf_02",
			"normalTexture":{
				"index":13
			},
			"pbrMetallicRoughness":{
				"baseColorTexture":{
					"index":14
				},
				"metallicFactor":0,
				"metallicRoughnessTexture":{
					"index":15
				}
			}
		},
		{
			"doubleSided":true,
			"name":"Leaf_03",
			"pbrMetallicRoughness":{
				"baseColorTexture":{
					"index":16
				},
				"metallicFactor":0
			}
		}
	],
	"meshes":[
		{
			"name":"Mesh.033",
			"primitives":[
				{
					"attributes":{
						"POSITION":0,
						"NORMAL":1,
						"TEXCOORD_0":2
					},
					"indices":3,
					"material":0
				},
				{
					"attributes":{
						"POSITION":4,
						"NORMAL":5,
						"TEXCOORD_0":6
					},
					"indices":7,
					"material":1
				},
				{
					"attributes":{
						"POSITION":8,
						"NORMAL":9,
						"TEXCOORD_0":10
					},
					"indices":11,
					"material":2
				},
				{
					"attributes":{
						"POSITION":12,
						"NORMAL":13,
						"TEXCOORD_0":14
					},
					"indices":15,
					"material":3
				},
				{
					"attributes":{
						"POSITION":16,
						"NORMAL":17,
						"TEXCOORD_0":18
					},
					"indices":19,
					"material":4
				},
				{
					"attributes":{
						"POSITION":20,
						"NORMAL":21,
						"TEXCOORD_0":22
					},
					"indices":23,
					"material":5
				},
				{
					"attributes":{
						"POSITION":24,
						"NORMAL":25,
						"TEXCOORD_0":26
					},
					"indices":27,
					"material":6
				},
				{
					"attributes":{
						"POSITION":28,
						"NORMAL":29,
						"TEXCOORD_0":30
					},
					"indices":31,
					"material":7
				}
			]
		}
	],
	"textures":[
		{
			"sampler":0,
			"source":0
		},
		{
			"sampler":0,
			"source":0
		},
		{
			"sampler":0,
			"source":0
		},
		{
			"sampler":0,
			"source":0
		},
		{
			"sampler":0,
			"source":0
		},
		{
			"sampler":0,
			"source":0
		},
		{
			"sampler":0,
			"source":0
		},
		{
			"sampler":0,
			"source":0
		},
		{
			"sampler":0,
			"source":0
		},
		{
			"sampler":0,
			"source":0
		},
		{
			"sampler":0,
			"source":1
		},
		{
			"sampler":0,
			"source":1
		},
		{
			"sampler":0,
			"source":2
		},
		{
			"sampler":0,
			"source":3
		},
		{
			"sampler":0,
			"source":3
		},
		{
			"sampler":0,
			"source":4
		},
		{
			"sampler":0,
			"source":5
		}
	],
	"images":[
		{
			"mimeType":"image/jpeg",
			"name":"Bark_DIFF",
			"uri":"Bark_DIFF.jpg"
		},
		{
			"mimeType":"image/jpeg",
			"name":"Leaf_01_DIFF",
			"uri":"Leaf_01_DIFF.jpg"
		},
		{
			"mimeType":"image/png",
			"name":"Leaf_01_DIFF",
			"uri":"Leaf_01_DIFF.png"
		},
		{
			"mimeType":"image/jpeg",
			"name":"Leaf_02_DIFF",
			"uri":"Leaf_02_DIFF.jpg"
		},
		{
			"mimeType":"image/png",
			"name":"Leaf_02_DIFF",
			"uri":"Leaf_02_DIFF.png"
		},
		{
			"mimeType":"image/jpeg",
			"name":"Leaf_03_DIFF",
			"uri":"Leaf_03_DIFF.jpg"
		}
	],
	"accessors":[
		{
			"bufferView":0,
			"componentType":5126,
			"count":6090,
			"max":[
				0.30128955841064453,
				-0.04677008092403412,
				0.6859588027000427
			],
			"min":[
				-0.9847124218940735,
				-1.404416799545288,
				-0.3598390221595764
			],
			"type":"VEC3"
		},
		{
			"bufferView":1,
			"componentType":5126,
			"count":6090,
			"type":"VEC3"
		},
		{
			"bufferView":2,
			"componentType":5126,
			"count":6090,
			"type":"VEC2"
		},
		{
			"bufferView":3,
			"componentType":5123,
			"count":27471,
			"type":"SCALAR"
		},
		{
			"bufferView":4,
			"componentType":5126,
			"count":5286,
			"max":[
				0.3557811379432678,
				4.144721031188965,
				0.336881160736084
			],
			"min":[
				-0.7252587080001831,
				-0.06880589574575424,
				-0.2560313642024994
			],
			"type":"VEC3"
		},
		{
			"bufferView":5,
			"componentType":5126,
			"count":5286,
			"type":"VEC3"
		},
		{
			"bufferView":6,
			"componentType":5126,
			"count":5286,
			"type":"VEC2"
		},
		{
			"bufferView":7,
			"componentType":5123,
			"count":27921,
			"type":"SCALAR"
		},
		{
			"bufferView":8,
			"componentType":5126,
			"count":35467,
			"max":[
				1.6582086086273193,
				4.621757507324219,
				1.9388514757156372
			],
			"min":[
				-1.5581727027893066,
				1.0148653984069824,
				-1.6365169286727905
			],
			"type":"VEC3"
		},
		{
			"bufferView":9,
			"componentType":5126,
			"count":35467,
			"type":"VEC3"
		},
		{
			"bufferView":10,
			"componentType":5126,
			"count":35467,
			"type":"VEC2"
		},
		{
			"bufferView":11,
			"componentType":5123,
			"count":186927,
			"type":"SCALAR"
		},
		{
			"bufferView":12,
			"componentType":5126,
			"count":309969,
			"max":[
				2.117218017578125,
				5.355257511138916,
				2.3492825031280518
			],
			"min":[
				-2.0226755142211914,
				1.2444820404052734,
				-1.906059980392456
			],
			"type":"VEC3"
		},
		{
			"bufferView":13,
			"componentType":5126,
			"count":309969,
			"type":"VEC3"
		},
		{
			"bufferView":14,
			"componentType":5126,
			"count":309969,
			"type":"VEC2"
		},
		{
			"bufferView":15,
			"componentType":5125,
			"count":1373070,
			"type":"SCALAR"
		},
		{
			"bufferView":16,
			"componentType":5126,
			"count":895864,
			"max":[
				2.1798269748687744,
				5.405894756317139,
				2.3969571590423584
			],
			"min":[
				-2.081674814224243,
				1.1928502321243286,
				-1.9725571870803833
			],
			"type":"VEC3"
		},
		{
			"bufferView":17,
			"componentType":5126,
			"count":895864,
			"type":"VEC3"
		},
		{
			"bufferView":18,
			"componentType":5126,
			"count":895864,
			"type":"VEC2"
		},
		{
			"bufferView":19,
			"componentType":5125,
			"count":3521142,
			"type":"SCALAR"
		},
		{
			"bufferView":20,
			"componentType":5126,
			"count":48984,
			"max":[
				2.018235445022583,
				5.351475238800049,
				2.3070385456085205
			],
			"min":[
				-2.1435678005218506,
				1.4764305353164673,
				-1.9829436540603638
			],
			"type":"VEC3"
		},
		{
			"bufferView":21,
			"componentType":5126,
			"count":48984,
			"type":"VEC3"
		},
		{
			"bufferView":22,
			"componentType":5126,
			"count":48984,
			"type":"VEC2"
		},
		{
			"bufferView":23,
			"componentType":5123,
			"count":163908,
			"type":"SCALAR"
		},
		{
			"bufferView":24,
			"componentType":5126,
			"count":500344,
			"max":[
				2.244192361831665,
				5.417802810668945,
				2.4528822898864746
			],
			"min":[
				-2.1377627849578857,
				1.1339519023895264,
				-2.0246191024780273
			],
			"type":"VEC3"
		},
		{
			"bufferView":25,
			"componentType":5126,
			"count":500344,
			"type":"VEC3"
		},
		{
			"bufferView":26,
			"componentType":5126,
			"count":500344,
			"type":"VEC2"
		},
		{
			"bufferView":27,
			"componentType":5125,
			"count":1674228,
			"type":"SCALAR"
		},
		{
			"bufferView":28,
			"componentType":5126,
			"count":187694,
			"max":[
				2.1929609775543213,
				5.297680377960205,
				2.3332512378692627
			],
			"min":[
				-2.0775012969970703,
				1.1310374736785889,
				-1.96989905834198
			],
			"type":"VEC3"
		},
		{
			"bufferView":29,
			"componentType":5126,
			"count":187694,
			"type":"VEC3"
		},
		{
			"bufferView":30,
			"componentType":5126,
			"count":187694,
			"type":"VEC2"
		},
		{
			"bufferView":31,
			"componentType":5125,
			"count":628053,
			"type":"SCALAR"
		}
	],
	"bufferViews":[
		{
			"buffer":0,
			"byteLength":73080,
			"byteOffset":0,
			"target":34962
		},
		{
			"buffer":0,
			"byteLength":73080,
			"byteOffset":73080,
			"target":34962
		},
		{
			"buffer":0,
			"byteLength":48720,
			"byteOffset":146160,
			"target":34962
		},
		{
			"buffer":0,
			"byteLength":54942,
			"byteOffset":194880,
			"target":34963
		},
		{
			"buffer":0,
			"byteLength":63432,
			"byteOffset":249824,
			"target":34962
		},
		{
			"buffer":0,
			"byteLength":63432,
			"byteOffset":313256,
			"target":34962
		},
		{
			"buffer":0,
			"byteLength":42288,
			"byteOffset":376688,
			"target":34962
		},
		{
			"buffer":0,
			"byteLength":55842,
			"byteOffset":418976,
			"target":34963
		},
		{
			"buffer":0,
			"byteLength":425604,
			"byteOffset":474820,
			"target":34962
		},
		{
			"buffer":0,
			"byteLength":425604,
			"byteOffset":900424,
			"target":34962
		},
		{
			"buffer":0,
			"byteLength":283736,
			"byteOffset":1326028,
			"target":34962
		},
		{
			"buffer":0,
			"byteLength":373854,
			"byteOffset":1609764,
			"target":34963
		},
		{
			"buffer":0,
			"byteLength":3719628,
			"byteOffset":1983620,
			"target":34962
		},
		{
			"buffer":0,
			"byteLength":3719628,
			"byteOffset":5703248,
			"target":34962
		},
		{
			"buffer":0,
			"byteLength":2479752,
			"byteOffset":9422876,
			"target":34962
		},
		{
			"buffer":0,
			"byteLength":5492280,
			"byteOffset":11902628,
			"target":34963
		},
		{
			"buffer":0,
			"byteLength":10750368,
			"byteOffset":17394908,
			"target":34962
		},
		{
			"buffer":0,
			"byteLength":10750368,
			"byteOffset":28145276,
			"target":34962
		},
		{
			"buffer":0,
			"byteLength":7166912,
			"byteOffset":38895644,
			"target":34962
		},
		{
			"buffer":0,
			"byteLength":14084568,
			"byteOffset":46062556,
			"target":34963
		},
		{
			"buffer":0,
			"byteLength":587808,
			"byteOffset":60147124,
			"target":34962
		},
		{
			"buffer":0,
			"byteLength":587808,
			"byteOffset":60734932,
			"target":34962
		},
		{
			"buffer":0,
			"byteLength":391872,
			"byteOffset":61322740,
			"target":34962
		},
		{
			"buffer":0,
			"byteLength":327816,
			"byteOffset":61714612,
			"target":34963
		},
		{
			"buffer":0,
			"byteLength":6004128,
			"byteOffset":62042428,
			"target":34962
		},
		{
			"buffer":0,
			"byteLength":6004128,
			"byteOffset":68046556,
			"target":34962
		},
		{
			"buffer":0,
			"byteLength":4002752,
			"byteOffset":74050684,
			"target":34962
		},
		{
			"buffer":0,
			"byteLength":6696912,
			"byteOffset":78053436,
			"target":34963
		},
		{
			"buffer":0,
			"byteLength":2252328,
			"byteOffset":84750348,
			"target":34962
		},
		{
			"buffer":0,
			"byteLength":2252328,
			"byteOffset":87002676,
			"target":34962
		},
		{
			"buffer":0,
			"byteLength":1501552,
			"byteOffset":89255004,
			"target":34962
		},
		{
			"buffer":0,
			"byteLength":2512212,
			"byteOffset":90756556,
			"target":34963
		}
	],
	"samplers":[
		{
			"magFilter":9729,
			"minFilter":9987
		}
	],
	"buffers":[
		{
			"byteLength":93268768,
			"uri":"tree004.bin"
		}
	]
}
